<global>
ampeg_release=1.50

<group>
group_label=RR1
seq_length=8
seq_position=1

<region>
end=34795
hivel=127
key=c4
lovel=0
sample=Shaker_2_Hits_RR1.opus

<group>
group_label=RR2
seq_length=8
seq_position=2

<region>
end=27179
hivel=127
key=c4
lovel=0
sample=Shaker_2_Hits_RR2.opus

<group>
group_label=RR3
seq_length=8
seq_position=3

<region>
end=29183
hivel=127
key=c4
lovel=0
sample=Shaker_2_Hits_RR3.opus

<group>
group_label=RR4
seq_length=8
seq_position=4

<region>
end=29639
hivel=127
key=c4
lovel=0
sample=Shaker_2_Hits_RR4.opus

<group>
group_label=RR5
seq_length=8
seq_position=5

<region>
end=32461
hivel=127
key=c4
lovel=0
sample=Shaker_2_Hits_RR5.opus

<group>
group_label=RR6
seq_length=8
seq_position=6

<region>
end=28640
hivel=127
key=c4
lovel=0
sample=Shaker_2_Hits_RR6.opus

<group>
group_label=RR7
seq_length=8
seq_position=7

<region>
end=24830
hivel=127
key=c4
lovel=0
sample=Shaker_2_Hits_RR7.opus

<group>
group_label=RR8
seq_length=8
seq_position=8

<region>
end=24673
hivel=127
key=c4
lovel=0
sample=Shaker_2_Hits_RR8.opus

<group>
amp_veltrack=0
ampeg_release=0.45
group_label=MP_copy
xf_cccurve=gain
xfin_hicc1=64
xfin_locc1=0
xfout_hicc1=127
xfout_locc1=64

<region>
hivel=127
key=d4
loop_end=208896
loop_start=29939
lovel=0
sample=Shaker_2_Rolls_RR1.opus

<group>
amp_veltrack=0
ampeg_release=0.45
group_label=F_copy
xf_cccurve=gain
xfin_hicc1=127
xfin_locc1=64
xfout_hicc1=127
xfout_locc1=127

<region>
hivel=127
key=d4
loop_end=191261
loop_start=24794
lovel=0
sample=Shaker_2_Rolls_RR2.opus

